<?xml version="1.0" encoding="UTF-8" standalone="no"?>
<svg
   xmlns:dc="http://purl.org/dc/elements/1.1/"
   xmlns:cc="http://creativecommons.org/ns#"
   xmlns:rdf="http://www.w3.org/1999/02/22-rdf-syntax-ns#"
   xmlns:svg="http://www.w3.org/2000/svg"
   xmlns="http://www.w3.org/2000/svg"
   xmlns:sodipodi="http://sodipodi.sourceforge.net/DTD/sodipodi-0.dtd"
   xmlns:inkscape="http://www.inkscape.org/namespaces/inkscape"
   id="logo"
   viewBox="0 0 700 700"
   version="1.1"
   sodipodi:docname="oyo-logo.svg"
   width="700"
   height="700"
   inkscape:version="0.92.1 r15371"
   inkscape:export-filename="C:\Users\alex\sites\oyo-logo-0.png"
   inkscape:export-xdpi="561.73999"
   inkscape:export-ydpi="561.73999">
  <metadata
     id="metadata9">
    <rdf:RDF>
      <cc:Work
         rdf:about="">
        <dc:format>image/svg+xml</dc:format>
        <dc:type
           rdf:resource="http://purl.org/dc/dcmitype/StillImage" />
        <dc:title></dc:title>
      </cc:Work>
    </rdf:RDF>
  </metadata>
  <defs
     id="defs7" />
  <sodipodi:namedview
     pagecolor="#ffffff"
     bordercolor="#666666"
     borderopacity="1"
     objecttolerance="10"
     gridtolerance="10"
     guidetolerance="10"
     inkscape:pageopacity="0"
     inkscape:pageshadow="2"
     inkscape:window-width="1600"
     inkscape:window-height="838"
     id="namedview5"
     showgrid="false"
     inkscape:zoom="0.34187946"
     inkscape:cx="860.71405"
     inkscape:cy="378.29174"
     inkscape:window-x="-8"
     inkscape:window-y="-8"
     inkscape:window-maximized="1"
     inkscape:current-layer="logo" />
  <rect
     style="fill:#ee2e24;fill-opacity:1;stroke:none;stroke-width:0.60000002;stroke-miterlimit:4;stroke-dasharray:none;stroke-opacity:1;paint-order:normal"
     id="rect4497"
     width="710.77686"
     height="710.77686"
     x="793.13861"
     y="-2.4634202"
     inkscape:export-filename="C:\Users\alex\sites\oyo-logo-4.png"
     inkscape:export-xdpi="54.025391"
     inkscape:export-ydpi="54.025391" />
  <path
     d="m 1308.2759,438.1652 c 46.692,0 84.6837,-38.24215 84.6837,-85.24019 0,-47.02588 -37.9918,-85.24019 -84.6837,-85.24019 -46.7013,0 -84.6837,38.21432 -84.6837,85.24019 0,46.99805 37.9824,85.24019 84.6837,85.24019 z m 0,-115.63541 c 16.6399,0 30.1912,13.63472 30.1912,30.38594 0,16.75123 -13.5606,30.3674 -30.2005,30.3674 -16.6492,0 -30.1819,-13.61617 -30.1819,-30.37668 0,-16.76977 13.542,-30.39521 30.1819,-30.39521 z M 988.77818,438.1652 c 46.69202,0 84.68372,-38.24215 84.68372,-85.24019 0,-47.02588 -37.9917,-85.24019 -84.68372,-85.24019 -46.68269,0 -84.68367,38.21432 -84.68367,85.24019 0,46.99805 38.00098,85.24019 84.68367,85.24019 z m 0,-115.63541 c 16.64922,0 30.19122,13.63472 30.19122,30.38594 0,16.75123 -13.542,30.3674 -30.19122,30.3674 -16.63992,0 -30.17262,-13.61617 -30.17262,-30.37668 0,-16.76977 13.54197,-30.39521 30.17262,-30.39521 z m 159.70252,-1.91999 -25.9988,-51.81195 h -60.8739 l 56.8577,113.34442 v 53.36091 h 60.0392 v -53.36091 l 56.8577,-113.34442 h -60.9018 l -25.9709,51.81195 z"
     id="path2-9"
     style="fill:#ffffff;fill-opacity:1;stroke-width:9.27532101"
     inkscape:connector-curvature="0"
     inkscape:export-filename="C:\Users\alex\sites\oyo-logo-4.png"
     inkscape:export-xdpi="54.025391"
     inkscape:export-ydpi="54.025391" />
  <path
     d="m 509.7488,435.24019 c 46.692,0 84.6837,-38.24215 84.6837,-85.24019 0,-47.02588 -37.9917,-85.24019 -84.6837,-85.24019 -46.7012,0 -84.6836,38.21432 -84.6836,85.24019 0,46.99805 37.9824,85.24019 84.6836,85.24019 z m 0,-115.63541 c 16.64,0 30.1912,13.63472 30.1912,30.38594 0,16.75123 -13.5605,30.3674 -30.2004,30.3674 -16.6492,0 -30.1819,-13.61617 -30.1819,-30.37668 0,-16.76977 13.5419,-30.39521 30.1819,-30.39521 z M 190.2511,435.24019 c 46.692,0 84.6837,-38.24215 84.6837,-85.24019 0,-47.02588 -37.9917,-85.24019 -84.6837,-85.24019 -46.6826,0 -84.6836,38.21432 -84.6836,85.24019 0,46.99805 38.001,85.24019 84.6836,85.24019 z m 0,-115.63541 c 16.6493,0 30.1912,13.63472 30.1912,30.38594 0,16.75123 -13.5419,30.3674 -30.1912,30.3674 -16.6399,0 -30.1726,-13.61617 -30.1726,-30.37668 0,-16.76977 13.542,-30.39521 30.1726,-30.39521 z m 159.7025,-1.91999 -25.9987,-51.81195 H 263.081 l 56.8577,113.34442 v 53.36091 h 60.0391 v -53.36091 l 56.8577,-113.34442 h -60.9017 l -25.9709,51.81195 z"
     id="path2"
     style="fill:#ee2e24;fill-opacity:1;stroke-width:9.27532101"
     inkscape:connector-curvature="0"
     inkscape:export-filename="C:\Users\alex\sites\oyo-logo-5.png"
     inkscape:export-xdpi="78.549294"
     inkscape:export-ydpi="78.549294" />
</svg>
